<svg viewBox="0 0 600 400" xmlns="http://www.w3.org/2000/svg">
<g transform="translate(72, 364)">
<g>
<g>
<circle cx="240" cy="-170" fill="#DD3355" r="5"/>
<circle cx="240" cy="-170" fill="#DD3355" r="5"/>
<circle cx="240" cy="-170" fill="#DD3355" r="5"/>
<circle cx="240" cy="-170" fill="#DD3355" r="5"/>
<circle cx="240" cy="-170" fill="#DD3355" r="5"/>
<circle cx="240" cy="-170" fill="#DD3355" r="5"/>
<circle cx="240" cy="-170" fill="#DD3355" r="5"/>
<circle cx="240" cy="-170" fill="#DD3355" r="5"/>
<circle cx="240" cy="-170" fill="#DD3355" r="5"/>
<circle cx="240" cy="-170" fill="#DD3355" r="5"/>
<circle cx="240" cy="-170" fill="#DD3355" r="5"/>
<circle cx="240" cy="-170" fill="#DD3355" r="5"/>
<circle cx="240" cy="-170" fill="#DD3355" r="5"/>
<circle cx="240" cy="-170" fill="#DD3355" r="5"/>
<circle cx="240" cy="-170" fill="#DD3355" r="5"/>
<circle cx="240" cy="-170" fill="#DD3355" r="5"/>
<circle cx="240" cy="-170" fill="#DD3355" r="5"/>
<circle cx="252" cy="-178.5" fill="#DD3355" r="5"/>
<circle cx="252" cy="-178.5" fill="#DD3355" r="5"/>
<circle cx="264" cy="-187" fill="#DD3355" r="5"/>
<circle cx="264" cy="-187" fill="#DD3355" r="5"/>
<circle cx="252" cy="-195.5" fill="#DD3355" r="5"/>
<circle cx="252" cy="-195.5" fill="#DD3355" r="5"/>
<circle cx="252" cy="-195.5" fill="#DD3355" r="5"/>
<circle cx="252" cy="-195.5" fill="#DD3355" r="5"/>
<circle cx="252" cy="-195.5" fill="#DD3355" r="5"/>
<circle cx="252" cy="-195.5" fill="#DD3355" r="5"/>
<circle cx="252" cy="-195.5" fill="#DD3355" r="5"/>
<circle cx="252" cy="-195.5" fill="#DD3355" r="5"/>
<circle cx="252" cy="-195.5" fill="#DD3355" r="5"/>
<circle cx="252" cy="-195.5" fill="#DD3355" r="5"/>
<circle cx="252" cy="-195.5" fill="#DD3355" r="5"/>
<circle cx="252" cy="-195.5" fill="#DD3355" r="5"/>
<circle cx="252" cy="-195.5" fill="#DD3355" r="5"/>
<circle cx="252" cy="-195.5" fill="#DD3355" r="5"/>
<circle cx="252" cy="-195.5" fill="#DD3355" r="5"/>
<circle cx="252" cy="-195.5" fill="#DD3355" r="5"/>
<circle cx="264" cy="-204" fill="#DD3355" r="5"/>
<circle cx="264" cy="-204" fill="#DD3355" r="5"/>
<circle cx="276" cy="-212.5" fill="#DD3355" r="5"/>
<circle cx="288" cy="-212.5" fill="#DD3355" r="5"/>
<circle cx="300" cy="-212.5" fill="#DD3355" r="5"/>
<circle cx="300" cy="-212.5" fill="#DD3355" r="5"/>
<circle cx="312" cy="-204" fill="#DD3355" r="5"/>
<circle cx="312" cy="-204" fill="#DD3355" r="5"/>
<circle cx="324" cy="-195.5" fill="#DD3355" r="5"/>
<circle cx="324" cy="-195.5" fill="#DD3355" r="5"/>
<circle cx="336" cy="-187" fill="#DD3355" r="5"/>
<circle cx="336" cy="-187" fill="#DD3355" r="5"/>
<circle cx="348" cy="-178.5" fill="#DD3355" r="5"/>
<circle cx="348" cy="-178.5" fill="#DD3355" r="5"/>
<circle cx="360" cy="-170" fill="#DD3355" r="5"/>
<circle cx="360" cy="-170" fill="#DD3355" r="5"/>
<circle cx="360" cy="-170" fill="#DD3355" r="5"/>
<circle cx="360" cy="-170" fill="#DD3355" r="5"/>
<circle cx="360" cy="-170" fill="#DD3355" r="5"/>
<circle cx="360" cy="-170" fill="#DD3355" r="5"/>
<circle cx="360" cy="-170" fill="#DD3355" r="5"/>
<circle cx="360" cy="-170" fill="#DD3355" r="5"/>
<circle cx="360" cy="-170" fill="#DD3355" r="5"/>
<circle cx="360" cy="-170" fill="#DD3355" r="5"/>
<circle cx="348" cy="-161.5" fill="#DD3355" r="5"/>
<circle cx="348" cy="-161.5" fill="#DD3355" r="5"/>
<circle cx="336" cy="-153" fill="#DD3355" r="5"/>
<circle cx="336" cy="-153" fill="#DD3355" r="5"/>
<circle cx="324" cy="-144.5" fill="#DD3355" r="5"/>
<circle cx="324" cy="-144.5" fill="#DD3355" r="5"/>
<circle cx="312" cy="-136" fill="#DD3355" r="5"/>
<circle cx="312" cy="-136" fill="#DD3355" r="5"/>
<circle cx="300" cy="-127.5" fill="#DD3355" r="5"/>
<circle cx="288" cy="-127.5" fill="#DD3355" r="5"/>
<circle cx="276" cy="-127.5" fill="#DD3355" r="5"/>
<circle cx="264" cy="-127.5" fill="#DD3355" r="5"/>
<circle cx="252" cy="-127.5" fill="#DD3355" r="5"/>
<circle cx="240" cy="-127.5" fill="#DD3355" r="5"/>
<circle cx="228" cy="-127.5" fill="#DD3355" r="5"/>
<circle cx="216" cy="-127.5" fill="#DD3355" r="5"/>
<circle cx="216" cy="-127.5" fill="#DD3355" r="5"/>
<circle cx="204" cy="-136" fill="#DD3355" r="5"/>
<circle cx="204" cy="-136" fill="#DD3355" r="5"/>
<circle cx="192" cy="-144.5" fill="#DD3355" r="5"/>
<circle cx="192" cy="-144.5" fill="#DD3355" r="5"/>
<circle cx="180" cy="-153" fill="#DD3355" r="5"/>
<circle cx="180" cy="-153" fill="#DD3355" r="5"/>
<circle cx="168" cy="-161.5" fill="#DD3355" r="5"/>
<circle cx="168" cy="-161.5" fill="#DD3355" r="5"/>
<circle cx="156" cy="-170" fill="#DD3355" r="5"/>
<circle cx="156" cy="-170" fill="#DD3355" r="5"/>
<circle cx="144" cy="-178.5" fill="#DD3355" r="5"/>
<circle cx="144" cy="-178.5" fill="#DD3355" r="5"/>
<circle cx="132" cy="-187" fill="#DD3355" r="5"/>
<circle cx="132" cy="-187" fill="#DD3355" r="5"/>
<circle cx="120" cy="-195.5" fill="#DD3355" r="5"/>
<circle cx="120" cy="-195.5" fill="#DD3355" r="5"/>
<circle cx="108" cy="-204" fill="#DD3355" r="5"/>
<circle cx="108" cy="-212.5" fill="#DD3355" r="5"/>
<circle cx="108" cy="-221" fill="#DD3355" r="5"/>
</g>
</g>
<g>
<g>
<path d="M235,-175 l10,10 m-10,0 l10,-10 z" fill="none" stroke="#DFDFDF" stroke-width="2"/>
</g>
</g>
<g>
<g>
<line stroke="black" stroke-width="1" x1="0" x2="0" y1="0" y2="10"/>
<line stroke="black" stroke-width="1" x1="120" x2="120" y1="0" y2="10"/>
<line stroke="black" stroke-width="1" x1="240" x2="240" y1="0" y2="10"/>
<line stroke="black" stroke-width="1" x1="360" x2="360" y1="0" y2="10"/>
<line stroke="black" stroke-width="1" x1="480" x2="480" y1="0" y2="10"/>
</g>
<line stroke="black" stroke-width="1" x1="0" x2="480" y1="0" y2="0"/>
<g>
<text font-size="12" text-anchor="middle" x="0" y="20">
-20
</text>
<text font-size="12" text-anchor="middle" x="120" y="20">
-10
</text>
<text font-size="12" text-anchor="middle" x="240" y="20">
0
</text>
<text font-size="12" text-anchor="middle" x="360" y="20">
10
</text>
<text font-size="12" text-anchor="middle" x="480" y="20">
20
</text>
</g>
<text font-size="12" text-anchor="middle" x="240" y="30">
x
</text>
</g>
<g>
<g>
<line stroke="black" stroke-width="1" x1="0" x2="-10" y1="-0" y2="-0"/>
<line stroke="black" stroke-width="1" x1="0" x2="-10" y1="-85" y2="-85"/>
<line stroke="black" stroke-width="1" x1="0" x2="-10" y1="-170" y2="-170"/>
<line stroke="black" stroke-width="1" x1="0" x2="-10" y1="-255" y2="-255"/>
<line stroke="black" stroke-width="1" x1="0" x2="-10" y1="-340" y2="-340"/>
</g>
<line stroke="black" stroke-width="1" x1="0" x2="0" y1="0" y2="-340"/>
<g>
<text dominant-baseline="middle" font-size="12" text-anchor="end" x="-15" y="-0">
-20
</text>
<text dominant-baseline="middle" font-size="12" text-anchor="end" x="-15" y="-85">
-10
</text>
<text dominant-baseline="middle" font-size="12" text-anchor="end" x="-15" y="-170">
0
</text>
<text dominant-baseline="middle" font-size="12" text-anchor="end" x="-15" y="-255">
10
</text>
<text dominant-baseline="middle" font-size="12" text-anchor="end" x="-15" y="-340">
20
</text>
</g>
<text font-size="12" text-anchor="middle" transform="rotate(-90 -36 -170)" x="-36" y="-182">
y
</text>
</g>
</g>
</svg>